<?xml version="1.0" encoding="utf-8"?>
<!-- Generator: Adobe Illustrator 26.4.1, SVG Export Plug-In . SVG Version: 6.00 Build 0)  -->
<svg version="1.1" id="openai-horizontal" xmlns="http://www.w3.org/2000/svg" xmlns:xlink="http://www.w3.org/1999/xlink" x="0px"
	 y="0px" viewBox="0 0 120 29.5" style="enable-background:new 0 0 120 29.5;" xml:space="preserve">
<style type="text/css">
	.st0{clip-path:url(#SVGID_00000095333118043686969990000018383718893565179318_);}
	.st1{clip-path:url(#SVGID_00000176739969052738098560000009936989840805398933_);}
	.st2{fill:url(#SVGID_00000093150783493922330010000007137690581643625653_);}
	.st3{fill:#545454;}
</style>
<g>
	<defs>
		<rect id="SVGID_1_" x="2.2" y="3.5" width="23.4" height="22.6"/>
	</defs>
	<clipPath id="SVGID_00000074441269572566410700000011327871313810740415_">
		<use xlink:href="#SVGID_1_"  style="overflow:visible;"/>
	</clipPath>
	<g style="clip-path:url(#SVGID_00000074441269572566410700000011327871313810740415_);">
		<g>
			<defs>
				<path id="SVGID_00000180352888258475897670000013210974200072355718_" d="M13.8,3.7c1.3-0.5,2.8-0.1,3.8,0.9
					c2.3,2.5,4.6,4.9,6.9,7.4c0.7,0.7,1.1,1.7,1.1,2.6c0,1.1-0.5,2.3-1.2,3c-2.3,2.4-4.6,4.9-6.9,7.3c-1.1,1.2-3.1,1.5-4.4,0.4
					c0-0.9,0.2-1.8,0.6-2.6c0.4-0.8,1.1-1.4,1.9-1.5c0.6-0.1,1.3,0.2,1.9,0.2c0.5,0,1-0.1,1.2-0.5c0.2-0.4,0.1-0.9,0.2-1.3
					c0.2-0.2,0.4-0.3,0.6-0.5c-0.1-0.2-0.1-0.3-0.2-0.5c0.4-0.3,0.2-0.9,0.2-1.3c0.3-0.3,0.8-0.3,1-0.7c0-0.5-0.4-0.9-0.6-1.3
					c-0.3-0.6-0.8-1.2-0.5-1.9c0.4-1.2,0.2-2.5-0.3-3.6c-0.5-1.2-1.6-2.1-2.7-2.6c-1.1-0.5-2.4-0.8-3.6-0.8c-0.7,0-1.5,0.2-2.2,0.3
					c0.5-0.6,1-1.1,1.5-1.6C12.5,4.5,13.1,4,13.8,3.7z M3.9,8.3C3.3,8.9,3.4,10,4,10.5c1,1,1.9,2,2.9,3c0-0.8,0-1.6,0.1-2.4
					c0.4-1.8,1.5-3.4,3-4.2C9.6,6.5,9.2,6,8.7,5.5C8.4,5.2,8.1,4.9,7.6,5C7.1,5,6.7,5.3,6.4,5.7C5.6,6.6,4.8,7.4,3.9,8.3z M10.6,9.7
					c-0.2,0.3-0.6,0.5-0.5,0.9c0.2,0.5,0.7,0.8,1,1.2c0.2,0.2,0.5,0.6,0.8,0.4c0.4-0.3,0.7-0.7,1.1-1c0.2-0.2,0.5-0.5,0.4-0.9
					c-0.3-0.5-0.7-0.9-1.1-1.3c-0.2-0.2-0.5-0.5-0.8-0.3C11.2,9,11,9.3,10.6,9.7z M2.8,14c-0.2,0.2-0.4,0.4-0.4,0.7
					c-0.1,0.6,0.5,0.9,0.8,1.3c0.3,0.3,0.7,0.9,1.2,0.7c0.5-0.3,0.8-0.8,1.2-1.2c0.2-0.3,0.6-0.6,0.4-1c-0.4-0.5-0.8-1-1.3-1.4
					c-0.2-0.3-0.6-0.4-0.9-0.2C3.4,13.3,3.1,13.7,2.8,14z M9,13.8c-0.8,0.9-1.7,1.8-2.5,2.6c-0.3,0.3-0.6,0.7-0.6,1.1
					c-0.1,0.5,0.1,1,0.5,1.3c0.7,0.7,1.4,1.5,2.1,2.2C8.7,21.4,9,21.8,9.3,22c0.5,0.4,1.4,0.3,1.8-0.2c0.9-1,1.9-2,2.8-3
					c0.6-0.6,0.6-1.6,0-2.2c-0.9-1-1.8-1.9-2.7-2.9c-0.4-0.4-0.9-0.7-1.5-0.5C9.5,13.3,9.2,13.6,9,13.8z"/>
			</defs>
			<clipPath id="SVGID_00000165947590849899415520000018096047833806183595_">
				<use xlink:href="#SVGID_00000180352888258475897670000013210974200072355718_"  style="overflow:visible;"/>
			</clipPath>
			<g style="clip-path:url(#SVGID_00000165947590849899415520000018096047833806183595_);">
				
					<linearGradient id="SVGID_00000153687088394076584440000009189645388386265018_" gradientUnits="userSpaceOnUse" x1="1463.7355" y1="-711.1469" x2="1535.875" y2="-789.4589" gradientTransform="matrix(0.3085 0 0 -0.3091 -448.7881 -217.0551)">
					<stop  offset="0" style="stop-color:#0017A0"/>
					<stop  offset="0.25" style="stop-color:#0017A0"/>
					<stop  offset="0.3125" style="stop-color:#0017A0"/>
					<stop  offset="0.3164" style="stop-color:#0018A0"/>
					<stop  offset="0.3203" style="stop-color:#0019A0"/>
					<stop  offset="0.3242" style="stop-color:#0019A0"/>
					<stop  offset="0.3281" style="stop-color:#001AA1"/>
					<stop  offset="0.332" style="stop-color:#001BA1"/>
					<stop  offset="0.3359" style="stop-color:#001CA1"/>
					<stop  offset="0.3398" style="stop-color:#001DA1"/>
					<stop  offset="0.3438" style="stop-color:#001DA1"/>
					<stop  offset="0.3477" style="stop-color:#001EA2"/>
					<stop  offset="0.3516" style="stop-color:#001FA2"/>
					<stop  offset="0.3555" style="stop-color:#0020A2"/>
					<stop  offset="0.3594" style="stop-color:#0021A2"/>
					<stop  offset="0.3633" style="stop-color:#0021A2"/>
					<stop  offset="0.3672" style="stop-color:#0022A2"/>
					<stop  offset="0.3711" style="stop-color:#0023A3"/>
					<stop  offset="0.375" style="stop-color:#0024A3"/>
					<stop  offset="0.3789" style="stop-color:#0025A3"/>
					<stop  offset="0.3828" style="stop-color:#0025A3"/>
					<stop  offset="0.3867" style="stop-color:#0026A3"/>
					<stop  offset="0.3906" style="stop-color:#0027A4"/>
					<stop  offset="0.3945" style="stop-color:#0028A4"/>
					<stop  offset="0.3984" style="stop-color:#0028A4"/>
					<stop  offset="0.4023" style="stop-color:#0029A4"/>
					<stop  offset="0.4062" style="stop-color:#002AA4"/>
					<stop  offset="0.4102" style="stop-color:#002BA4"/>
					<stop  offset="0.4141" style="stop-color:#002CA5"/>
					<stop  offset="0.418" style="stop-color:#002CA5"/>
					<stop  offset="0.4219" style="stop-color:#002DA5"/>
					<stop  offset="0.4258" style="stop-color:#002EA5"/>
					<stop  offset="0.4297" style="stop-color:#002FA5"/>
					<stop  offset="0.4336" style="stop-color:#0030A6"/>
					<stop  offset="0.4375" style="stop-color:#0030A6"/>
					<stop  offset="0.4414" style="stop-color:#0031A6"/>
					<stop  offset="0.4453" style="stop-color:#0032A6"/>
					<stop  offset="0.4492" style="stop-color:#0033A6"/>
					<stop  offset="0.4531" style="stop-color:#0034A6"/>
					<stop  offset="0.457" style="stop-color:#0034A7"/>
					<stop  offset="0.4609" style="stop-color:#0035A7"/>
					<stop  offset="0.4648" style="stop-color:#0036A7"/>
					<stop  offset="0.4688" style="stop-color:#0037A7"/>
					<stop  offset="0.4727" style="stop-color:#0038A7"/>
					<stop  offset="0.4766" style="stop-color:#0038A7"/>
					<stop  offset="0.4805" style="stop-color:#0039A8"/>
					<stop  offset="0.4844" style="stop-color:#003AA8"/>
					<stop  offset="0.4883" style="stop-color:#003BA8"/>
					<stop  offset="0.4922" style="stop-color:#003BA8"/>
					<stop  offset="0.4961" style="stop-color:#003CA8"/>
					<stop  offset="0.5" style="stop-color:#003DA9"/>
					<stop  offset="0.5039" style="stop-color:#003EA9"/>
					<stop  offset="0.5078" style="stop-color:#003FA9"/>
					<stop  offset="0.5117" style="stop-color:#003FA9"/>
					<stop  offset="0.5156" style="stop-color:#0040A9"/>
					<stop  offset="0.5195" style="stop-color:#0041A9"/>
					<stop  offset="0.5234" style="stop-color:#0042AA"/>
					<stop  offset="0.5273" style="stop-color:#0043AA"/>
					<stop  offset="0.5312" style="stop-color:#0043AA"/>
					<stop  offset="0.5352" style="stop-color:#0044AA"/>
					<stop  offset="0.5391" style="stop-color:#0045AA"/>
					<stop  offset="0.543" style="stop-color:#0046AB"/>
					<stop  offset="0.5469" style="stop-color:#0047AB"/>
					<stop  offset="0.5508" style="stop-color:#0047AB"/>
					<stop  offset="0.5547" style="stop-color:#0048AB"/>
					<stop  offset="0.5586" style="stop-color:#0049AB"/>
					<stop  offset="0.5625" style="stop-color:#004AAB"/>
					<stop  offset="0.5664" style="stop-color:#004BAC"/>
					<stop  offset="0.5703" style="stop-color:#004BAC"/>
					<stop  offset="0.5742" style="stop-color:#004CAC"/>
					<stop  offset="0.5781" style="stop-color:#004DAC"/>
					<stop  offset="0.582" style="stop-color:#004EAC"/>
					<stop  offset="0.5859" style="stop-color:#004EAD"/>
					<stop  offset="0.5898" style="stop-color:#004FAD"/>
					<stop  offset="0.5938" style="stop-color:#0050AD"/>
					<stop  offset="0.5977" style="stop-color:#0051AD"/>
					<stop  offset="0.6016" style="stop-color:#0052AD"/>
					<stop  offset="0.6055" style="stop-color:#0052AD"/>
					<stop  offset="0.6094" style="stop-color:#0053AE"/>
					<stop  offset="0.6133" style="stop-color:#0054AE"/>
					<stop  offset="0.6172" style="stop-color:#0055AE"/>
					<stop  offset="0.6211" style="stop-color:#0056AE"/>
					<stop  offset="0.625" style="stop-color:#0056AE"/>
					<stop  offset="0.6289" style="stop-color:#0057AF"/>
					<stop  offset="0.6328" style="stop-color:#0058AF"/>
					<stop  offset="0.6367" style="stop-color:#0059AF"/>
					<stop  offset="0.6406" style="stop-color:#005AAF"/>
					<stop  offset="0.6445" style="stop-color:#005AAF"/>
					<stop  offset="0.6484" style="stop-color:#005BAF"/>
					<stop  offset="0.6523" style="stop-color:#005CB0"/>
					<stop  offset="0.6562" style="stop-color:#005DB0"/>
					<stop  offset="0.6602" style="stop-color:#005DB0"/>
					<stop  offset="0.6641" style="stop-color:#005EB0"/>
					<stop  offset="0.668" style="stop-color:#005FB0"/>
					<stop  offset="0.6719" style="stop-color:#0060B1"/>
					<stop  offset="0.6758" style="stop-color:#0061B1"/>
					<stop  offset="0.6797" style="stop-color:#0061B1"/>
					<stop  offset="0.6836" style="stop-color:#0062B1"/>
					<stop  offset="0.6875" style="stop-color:#0063B1"/>
					<stop  offset="0.6914" style="stop-color:#0064B1"/>
					<stop  offset="0.6953" style="stop-color:#0065B2"/>
					<stop  offset="0.6992" style="stop-color:#0065B2"/>
					<stop  offset="0.7031" style="stop-color:#0066B2"/>
					<stop  offset="0.707" style="stop-color:#0067B2"/>
					<stop  offset="0.7109" style="stop-color:#0068B2"/>
					<stop  offset="0.7148" style="stop-color:#0069B2"/>
					<stop  offset="0.7188" style="stop-color:#0069B3"/>
					<stop  offset="0.7227" style="stop-color:#006AB3"/>
					<stop  offset="0.7266" style="stop-color:#006BB3"/>
					<stop  offset="0.7305" style="stop-color:#006CB3"/>
					<stop  offset="0.7344" style="stop-color:#006DB3"/>
					<stop  offset="0.7383" style="stop-color:#006DB4"/>
					<stop  offset="0.7422" style="stop-color:#006EB4"/>
					<stop  offset="0.7461" style="stop-color:#006FB4"/>
					<stop  offset="0.75" style="stop-color:#0070B4"/>
					<stop  offset="0.7539" style="stop-color:#0070B4"/>
					<stop  offset="0.7578" style="stop-color:#0071B4"/>
					<stop  offset="0.7617" style="stop-color:#0072B5"/>
					<stop  offset="0.7656" style="stop-color:#0073B5"/>
					<stop  offset="0.7695" style="stop-color:#0074B5"/>
					<stop  offset="0.7734" style="stop-color:#0074B5"/>
					<stop  offset="0.7773" style="stop-color:#0075B5"/>
					<stop  offset="0.7812" style="stop-color:#0076B6"/>
					<stop  offset="0.7852" style="stop-color:#0077B6"/>
					<stop  offset="0.7891" style="stop-color:#0078B6"/>
					<stop  offset="0.793" style="stop-color:#0078B6"/>
					<stop  offset="0.7969" style="stop-color:#0079B6"/>
					<stop  offset="0.8008" style="stop-color:#007AB6"/>
					<stop  offset="0.8047" style="stop-color:#007BB7"/>
					<stop  offset="0.8086" style="stop-color:#007CB7"/>
					<stop  offset="0.8125" style="stop-color:#007CB7"/>
					<stop  offset="0.8164" style="stop-color:#007DB7"/>
					<stop  offset="0.8203" style="stop-color:#007EB7"/>
					<stop  offset="0.8242" style="stop-color:#007FB8"/>
					<stop  offset="0.8281" style="stop-color:#007FB8"/>
					<stop  offset="0.832" style="stop-color:#0080B8"/>
					<stop  offset="0.8359" style="stop-color:#0081B8"/>
					<stop  offset="0.8398" style="stop-color:#0082B8"/>
					<stop  offset="0.8438" style="stop-color:#0083B8"/>
					<stop  offset="0.8477" style="stop-color:#0083B9"/>
					<stop  offset="0.8516" style="stop-color:#0084B9"/>
					<stop  offset="0.8555" style="stop-color:#0085B9"/>
					<stop  offset="0.8594" style="stop-color:#0086B9"/>
					<stop  offset="0.8633" style="stop-color:#0087B9"/>
					<stop  offset="0.8672" style="stop-color:#0087BA"/>
					<stop  offset="0.8711" style="stop-color:#0088BA"/>
					<stop  offset="0.875" style="stop-color:#0089BA"/>
					<stop  offset="0.8789" style="stop-color:#008ABA"/>
					<stop  offset="0.8828" style="stop-color:#008BBA"/>
					<stop  offset="0.8867" style="stop-color:#008BBA"/>
					<stop  offset="0.8906" style="stop-color:#008CBB"/>
					<stop  offset="0.8945" style="stop-color:#008DBB"/>
					<stop  offset="0.8984" style="stop-color:#008EBB"/>
					<stop  offset="0.9023" style="stop-color:#008FBB"/>
					<stop  offset="0.9062" style="stop-color:#008FBB"/>
					<stop  offset="0.9102" style="stop-color:#0090BC"/>
					<stop  offset="0.9141" style="stop-color:#0091BC"/>
					<stop  offset="0.918" style="stop-color:#0092BC"/>
					<stop  offset="0.9219" style="stop-color:#0092BC"/>
					<stop  offset="0.9258" style="stop-color:#0093BC"/>
					<stop  offset="0.9297" style="stop-color:#0094BC"/>
					<stop  offset="0.9336" style="stop-color:#0095BD"/>
					<stop  offset="0.9375" style="stop-color:#0096BD"/>
					<stop  offset="0.9414" style="stop-color:#0096BD"/>
					<stop  offset="0.9453" style="stop-color:#0097BD"/>
					<stop  offset="0.9492" style="stop-color:#0098BD"/>
					<stop  offset="0.9531" style="stop-color:#0099BD"/>
					<stop  offset="0.957" style="stop-color:#009ABE"/>
					<stop  offset="0.9609" style="stop-color:#009ABE"/>
					<stop  offset="0.9648" style="stop-color:#009BBE"/>
					<stop  offset="0.9688" style="stop-color:#009CBE"/>
					<stop  offset="0.9727" style="stop-color:#009DBE"/>
					<stop  offset="0.9766" style="stop-color:#009EBF"/>
					<stop  offset="0.9805" style="stop-color:#009EBF"/>
					<stop  offset="0.9844" style="stop-color:#009FBF"/>
					<stop  offset="0.9883" style="stop-color:#00A0BF"/>
					<stop  offset="0.9922" style="stop-color:#00A1BF"/>
					<stop  offset="0.9961" style="stop-color:#00A1BF"/>
					<stop  offset="1" style="stop-color:#00A2C0"/>
				</linearGradient>
				<path style="fill:url(#SVGID_00000153687088394076584440000009189645388386265018_);" d="M2.2,3.3v23.2h23.4V3.3H2.2z"/>
			</g>
		</g>
	</g>
</g>
<g>
	<g transform="translate(120.567118, 245.422923)">
		<g>
			<path class="st3" d="M-86.3-237.2h-1.5c-0.1,0-0.4,0.1-0.4,0.6v12.1c0,0.5,0.3,0.6,0.4,0.6h1.5c0.1,0,0.4-0.1,0.4-0.6v-12.1
				C-85.8-237.1-86.2-237.2-86.3-237.2z"/>
		</g>
	</g>
</g>
<g>
	<g transform="translate(129.159136, 245.422923)">
		<g>
			<path class="st3" d="M-77.7-237.2h-1.4c-0.2,0-0.4,0-0.6,0.1c-0.2,0-0.3,0.1-0.4,0.2c-0.1,0.1-0.2,0.3-0.3,0.5
				c-0.1,0.2-0.2,0.4-0.3,0.7l-2.8,7.1c0,0.1,0,0.1,0,0.1h-0.2c0,0,0,0,0-0.1l-2.8-7.1c-0.1-0.3-0.2-0.5-0.3-0.7
				c-0.1-0.2-0.2-0.3-0.3-0.5c-0.1-0.1-0.3-0.2-0.4-0.2c-0.2,0-0.4-0.1-0.6-0.1h-1.5c-0.5,0-0.9,0.2-1.1,0.5
				c-0.2,0.3-0.3,0.8-0.3,1.6v10.6c0,0.5,0.3,0.6,0.5,0.6h1.4c0.1,0,0.4-0.1,0.4-0.6v-9.6c0,0,0,0,0,0h0.1c0,0,0,0,0,0l2.7,6.8
				c0.1,0.3,0.2,0.6,0.3,0.9c0.1,0.2,0.3,0.4,0.4,0.6c0.2,0.2,0.3,0.3,0.5,0.4c0.2,0.1,0.4,0.1,0.6,0.1h0.7c0.2,0,0.5,0,0.6-0.1
				c0.2-0.1,0.4-0.2,0.5-0.4c0.1-0.2,0.3-0.4,0.4-0.6c0.1-0.2,0.2-0.5,0.3-0.9l2.8-6.8c0,0,0,0,0,0h0.1c0,0,0,0,0,0v9.6
				c0,0.5,0.3,0.6,0.4,0.6h1.4c0.1,0,0.5-0.1,0.5-0.6v-10.6c0-0.7-0.1-1.2-0.3-1.6C-76.8-237-77.2-237.2-77.7-237.2z"/>
		</g>
	</g>
</g>
<g>
	<g transform="translate(156.255184, 245.422923)">
		<g>
			<path class="st3" d="M-91.5-235.7c0-0.1-0.1-0.2-0.1-0.2c-0.3-0.8-1-1.4-1.9-1.4c-0.4,0-0.8,0.1-1.1,0.3c-0.1,0-0.2,0.1-0.2,0.2
				c-0.2,0.2-0.5,0.6-0.7,1.2l-4.5,11.1c0,0.1-0.1,0.3,0,0.4c0,0.1,0.1,0.2,0.4,0.2h1.8c0.2,0,0.4-0.1,0.4-0.3l0.9-2.3h3.5
				c0.2,0,0.3-0.1,0.4-0.2c0.1-0.1,0.1-0.3,0.1-0.5l-0.6-1.4c-0.1-0.2-0.3-0.3-0.5-0.3h-2l2-5.2c0,0,0,0,0,0h0.1c0,0,0,0,0,0l4,9.9
				c0.1,0.2,0.2,0.4,0.5,0.4h1.7c0.3,0,0.3-0.2,0.4-0.2c0-0.1,0-0.2,0-0.4L-91.5-235.7z"/>
		</g>
	</g>
</g>
<g>
	<g transform="translate(181.02323, 245.422923)">
		<g>
			<path class="st3" d="M-97.5-237.2h-6.9c-0.7,0-1.3,0.1-1.8,0.3c-0.5,0.2-0.9,0.5-1.2,0.9c-0.3,0.4-0.6,0.9-0.7,1.6
				c-0.1,0.6-0.2,1.4-0.2,2.3v3.2c0,0.9,0.1,1.7,0.2,2.3c0.1,0.6,0.4,1.2,0.7,1.6c0.3,0.4,0.7,0.7,1.2,0.9c0.5,0.2,1.1,0.3,1.8,0.3
				h5.5c0.6,0,1.1-0.2,1.4-0.7c0.3-0.4,0.5-1.2,0.5-2.3v-4.3c0-0.6-0.4-0.7-0.6-0.7h-5.7c-0.1,0-0.4,0.1-0.4,0.6v1.2
				c0,0.5,0.3,0.6,0.4,0.6h4l0,2.2c0,0.5-0.1,0.7-0.1,0.8c-0.1,0.1-0.2,0.2-0.4,0.2h-4.5c-0.3,0-0.6,0-0.8-0.1
				c-0.2-0.1-0.4-0.2-0.5-0.4c-0.1-0.2-0.2-0.4-0.3-0.7c-0.1-0.3-0.1-0.7-0.1-1.2v-3.7c0-0.5,0-0.9,0.1-1.2c0-0.3,0.1-0.5,0.3-0.7
				c0.1-0.2,0.3-0.3,0.5-0.4c0.2-0.1,0.5-0.1,0.8-0.1h6.8c0.1,0,0.4,0,0.4-0.6v-1.2C-97.1-237.1-97.4-237.2-97.5-237.2z"/>
		</g>
	</g>
</g>
<g>
	<g transform="translate(202.983274, 245.422923)">
		<g>
			<path class="st3" d="M-113.8-237.2h-1.5c-0.1,0-0.4,0.1-0.4,0.6v12.1c0,0.5,0.3,0.6,0.4,0.6h1.5c0.1,0,0.4-0.1,0.4-0.6v-12.1
				C-113.3-237.1-113.7-237.2-113.8-237.2z"/>
		</g>
	</g>
</g>
<g>
	<g transform="translate(211.575291, 245.422923)">
		<g>
			<path class="st3" d="M-107.2-237.2h-1.4c-0.1,0-0.4,0-0.4,0.6v9.6c0,0,0,0,0,0h-0.1c0,0,0,0,0,0l-5.1-9c-0.1-0.2-0.2-0.4-0.4-0.6
				c-0.1-0.2-0.2-0.3-0.3-0.4c-0.1-0.1-0.3-0.2-0.4-0.2c-0.2,0-0.4,0-0.6,0h-1.2c-0.5,0-0.8,0.2-1,0.4c-0.2,0.3-0.3,0.8-0.3,1.6
				v10.6c0,0.5,0.3,0.6,0.5,0.6h1.4c0.1,0,0.4-0.1,0.4-0.6v-9.6c0,0,0,0,0,0h0.1c0,0,0,0,0,0l5.1,9c0.1,0.3,0.3,0.4,0.4,0.6
				c0.1,0.2,0.2,0.3,0.4,0.4c0.1,0.1,0.3,0.1,0.4,0.2c0.1,0,0.3,0,0.5,0h1.2c0.5,0,0.8-0.2,1-0.5c0.2-0.3,0.3-0.8,0.3-1.6v-10.6
				C-106.8-237.1-107.1-237.2-107.2-237.2z"/>
		</g>
	</g>
</g>
<g>
	<g transform="translate(234.279338, 245.422923)">
		<g>
			<path class="st3" d="M-116.5-226.9h-5.6c-0.3,0-0.6,0-0.8-0.1c-0.2-0.1-0.4-0.2-0.5-0.4c-0.1-0.2-0.2-0.4-0.3-0.7
				c0-0.1,0-0.2,0-0.3c0,0,0-1.2,0-1.2h7.1c0.1,0,0.5-0.1,0.5-0.6v-1.3c0-0.5-0.3-0.5-0.5-0.5l-8.3,0c-0.5,0-0.9,0.3-1.1,0.7
				c-0.1,0.1-0.1,0.3-0.2,0.4l0,2v0.1c0,0.8,0.1,1.4,0.2,1.9c0.1,0.6,0.4,1.2,0.7,1.6c0.3,0.4,0.7,0.7,1.2,0.9
				c0.5,0.2,1.1,0.3,1.8,0.3h5.7c0.1,0,0.5,0,0.5-0.5v-1.8C-116.1-226.8-116.4-226.9-116.5-226.9z M-116.5-237.2h-9.2
				c-0.1,0-0.4,0.1-0.4,0.6v1.2c0,0.5,0.3,0.5,0.4,0.5l9.2,0c0.1,0,0.4-0.1,0.4-0.6v-1.3C-116.1-237.1-116.4-237.2-116.5-237.2z"/>
		</g>
	</g>
</g>
</svg>
